<svg xmlns="http://www.w3.org/2000/svg" viewBox="0 0 512 512">
  <defs>
    <linearGradient id="grad" x1="0%" y1="0%" x2="100%" y2="100%">
      <stop offset="0%" style="stop-color:#6366f1;stop-opacity:1" />
      <stop offset="100%" style="stop-color:#818cf8;stop-opacity:1" />
    </linearGradient>
  </defs>
  <rect width="512" height="512" rx="128" fill="url(#grad)"/>
  <path d="M256 320c44.11 0 80-35.89 80-80v-128c0-44.11-35.89-80-80-80s-80 35.89-80 80v128c0 44.11 35.89 80 80 80z" fill="white"/>
  <path d="M416 240c0 88.37-71.63 160-160 160s-160-71.63-160-160h-32c0 97.05 71.09 177.52 164 190.27v65.73h64v-65.73c92.91-12.75 164-93.22 164-190.27h-32z" fill="white"/>
</svg>
